<?xml version="1.0" encoding="UTF-8"?>
<svg width="269px" height="72px" viewBox="0 0 269 72" version="1.1" xmlns="http://www.w3.org/2000/svg" xmlns:xlink="http://www.w3.org/1999/xlink">
    <!-- Generator: Sketch 50.2 (55047) - http://www.bohemiancoding.com/sketch -->
    <title>inovativa-logo-background</title>
    <desc>Created with Sketch.</desc>
    <defs></defs>
    <g id="Page-1" stroke="none" stroke-width="1" fill="none" fill-rule="evenodd">
        <g id="Lading-Page---desktop" transform="translate(-334.000000, -2169.000000)">
            <g id="4" transform="translate(0.000000, 2097.000000)">
                <g id="Group" transform="translate(268.000000, 0.000000)">
                    <g id="1">
                        <g id="inovativa-logo-background" transform="translate(66.000000, 72.000000)">
                            <rect id="Backgorund" x="0" y="0" width="269" height="72"></rect>
                            <path d="M268.744186,57.8415267 L265.01314,57.8415267 L265.01314,43.2241303 L263.500368,43.2241303 L263.500368,59.3630195 L268.744186,59.3630195 L268.744186,57.8415267 Z M253.817252,43.2241303 L252.241218,43.2241303 L252.241218,59.3630195 L253.811751,59.3630195 L253.817252,43.2241303 Z M237.130001,46.6613209 C237.130001,45.6336217 238.033538,44.7456231 239.212125,44.7456231 C240.331577,44.7456231 241.29425,45.5948928 241.29425,46.6613209 L241.29425,48.2810192 L242.807022,48.2810192 L242.807022,46.6613209 C242.807022,44.7649876 241.215861,43.2241303 239.212125,43.2241303 C237.20839,43.2241303 235.600726,44.7649876 235.600726,46.6613209 L235.600726,49.0320833 C235.600726,50.8302112 237.270276,52.1732744 239.176369,52.1732744 C240.29582,52.1732744 241.277747,52.786021 241.277747,53.6947672 L241.277747,56.0060531 C241.277747,57.0337523 240.374209,57.9217508 239.214876,57.9217508 C238.055542,57.9217508 237.113498,57.0323691 237.113498,56.0046699 L237.113498,54.4444482 L235.600726,54.4444482 L235.600726,56.0046699 C235.600726,57.9010032 237.211141,59.4418605 239.214876,59.4418605 C241.178729,59.4418605 242.809772,57.9010032 242.809772,56.0046699 L242.809772,53.693384 C242.809772,51.9547327 241.061833,50.828828 239.254758,50.6905105 C238.116053,50.631034 237.134127,50.0182873 237.134127,49.0307002 L237.130001,46.6613209 Z M226.806019,59.3644026 L223.447666,43.2241303 L221.699726,43.2241303 L218.459644,59.3644026 L220.169076,59.3644026 L220.797564,56.6976407 L224.430967,56.6976407 L225.099338,59.3644026 L226.806019,59.3644026 Z M220.973596,55.2937178 C221.58283,51.9948448 222.053165,49.3668117 222.58401,46.6212088 L224.25356,55.2937178 L220.973596,55.2937178 Z M205.895384,44.74424 C206.39961,44.7423293 206.883433,44.9443674 207.238032,45.3049127 C207.592631,45.6654579 207.788234,46.154239 207.780848,46.6613209 L207.780848,50.6517816 C207.759161,51.6398558 206.956423,52.4294025 205.973773,52.4291618 L204.00992,52.4291619 L204.00992,44.7442265 L205.895384,44.74424 Z M204.00992,53.8123371 L205.993027,53.8123371 C207.034089,53.8123371 207.937626,54.6809712 207.937626,55.6699415 L207.937626,59.3644026 L209.471027,59.3644026 L209.471027,55.6685583 C209.471027,54.7003356 208.959435,53.7321129 208.055898,53.0612729 C208.82191,52.4291618 209.332127,51.5397801 209.332127,50.6517816 L209.332127,46.6613209 C209.320782,44.7596618 207.784802,43.2240961 205.894009,43.2241303 L202.476519,43.2241303 L202.476519,59.3630195 L204.008545,59.3630195 L204.00992,53.8123371 Z M188.776306,44.74424 C189.836621,44.74424 190.740159,45.5354162 190.740159,46.4635268 L190.740159,48.8730182 C190.716151,49.953717 189.85081,50.8240461 188.776306,50.8481925 L186.537403,50.8481925 L186.537403,44.74424 L188.776306,44.74424 Z M189.051355,52.2313677 C190.292605,52.2455683 191.295392,53.2541363 191.309511,54.5025416 L191.309511,55.8262403 C191.309511,56.9327805 190.287703,57.8415267 189.04998,57.8415267 L186.536028,57.8415267 L186.536028,52.2313677 L189.051355,52.2313677 Z M185.024631,59.3630195 L189.051355,59.3630195 C191.152733,59.3630195 192.841537,57.6437326 192.841537,55.4513998 L192.841537,54.5025416 C192.841537,53.2576838 192.153913,52.0723026 191.013833,51.341986 C191.779846,50.6905105 192.270809,49.8606053 192.270809,48.8730182 L192.270809,46.8383673 C192.270809,44.8438286 190.698901,43.2241303 188.77493,43.2241303 L185.023256,43.2241303 L185.024631,59.3630195 Z M265.01314,35.298536 L260.106258,11.7209302 L257.553799,11.7209302 L252.818822,35.298536 L255.658708,35.298536 L258.843781,19.5704499 L262.173254,35.298536 L265.01314,35.298536 Z M235.266541,11.7209302 L239.56969,35.298536 L243.185215,35.298536 L247.403098,11.7209302 L244.592093,11.7209302 L241.37814,29.2097984 L238.077546,11.7209302 L235.266541,11.7209302 Z" id="Shape" fill-opacity="0.4" fill="#000000"></path>
                            <polygon id="Shape" fill-opacity="0.4" fill="#000000" fill-rule="nonzero" points="224.372093 11.7209302 226.883721 11.7209302 226.883721 35.1627907 224.372093 35.1627907"></polygon>
                            <path d="M213.142877,14.4552679 L216.837209,14.4552679 L216.837209,11.7209302 L206.621434,11.7209302 L206.621434,14.4552679 L210.373857,14.4552679 L210.373857,34.9907854 L213.142877,34.9907854 L213.142877,14.4552679 Z M166.603425,11.7209302 L170.932612,34.9907854 L174.567469,34.9907854 L178.810902,11.7209302 L175.982408,11.7209302 L172.75004,28.9815221 L169.430536,11.7209302 L166.603425,11.7209302 Z M153.221672,32.484423 C151.633843,32.484423 150.191241,31.6298571 150.191241,30.4626786 L150.191241,16.4196772 C150.191241,15.2511335 151.633843,14.3979328 153.221672,14.3979328 C154.838547,14.3979328 156.252103,15.2524987 156.252103,16.4196772 L156.252103,30.4626786 C156.252103,31.6312223 154.837164,32.4857881 153.221672,32.4857881 L153.221672,32.484423 Z M159.01974,16.4196772 C159.01974,13.7426747 156.308811,11.7236605 153.220289,11.7236605 C150.189858,11.7236605 147.419455,13.74677 147.419455,16.4237726 L147.419455,30.4626786 C147.419455,33.1396811 150.185709,35.1627907 153.220289,35.1627907 C156.308811,35.1627907 159.021123,33.1410463 159.021123,30.4626786 L159.01974,16.4196772 Z M130.863426,19.6673005 L136.375187,34.9907854 L138.945037,34.9907854 L138.945037,11.7209302 L136.174634,11.7209302 L136.174634,26.5884647 L131.094409,11.7209302 L128.093023,11.7209302 L128.093023,34.9907854 L130.863426,34.9907854 L130.863426,19.6673005 Z" id="Shape" fill-opacity="0.4" fill="#000000"></path>
                            <polygon id="Shape" fill-opacity="0.4" fill="#000000" fill-rule="nonzero" points="116.372093 11.7209302 118.883721 11.7209302 118.883721 35.1627907 116.372093 35.1627907"></polygon>
                            <polygon id="Shape" fill-opacity="0.4" fill="#000000" points="192.458131 11.8692893 187.785133 35.1627907 185.023256 35.1627907 190.737438 6.69767442 194.134985 6.69767442 200.093023 35.1627907 197.295526 35.1627907"></polygon>
                            <path d="M76.8029839,0 L72.8372093,2.95710912 C85.5853316,11.8751783 93.921495,26.602984 93.921495,43.2540791 C93.9254662,48.4680359 93.0943271,53.649499 91.4591675,58.6046512 L92.7727784,58.6046512 L96.8618772,58.5895288 C102.766574,36.8311291 94.8435475,13.6889556 76.8029839,0 Z" id="Shape" fill-opacity="0.4" fill="#000000" fill-rule="nonzero"></path>
                            <path d="M67.4251963,6.69767442 C63.5651776,9.60195569 66.9849946,7.03336586 63.9861204,9.2882768 L62.7906977,10.2031736 C79.2390548,19.6305613 86.4119692,39.6051646 79.7192047,57.3444325 C79.5568803,58.0213185 79.4358249,58.4615696 79.3931803,58.6046512 L85.2932589,58.6046512 C87.0272806,53.8263026 87.9118541,48.7813407 87.9069565,43.6980251 C87.9042053,28.1007553 79.7302097,14.4172017 67.4251963,6.69767442 Z" id="Shape" fill-opacity="0.4" fill="#000000"></path>
                            <path d="M59.1872253,13.3953488 C67.1545296,17.3444167 73.2361804,24.332044 76.088853,32.8147924 C78.9415255,41.2975409 78.3304889,50.5774114 74.3907099,58.6046512 L68.5944755,58.6046512 C68.7769191,58.2492994 68.9484161,57.889805 69.1089665,57.5261679 C72.8687765,50.2562124 73.4180211,41.7236545 70.6218186,34.0238943 C67.8256161,26.3241342 61.9429996,20.1704582 54.4186047,17.0740678 L59.1872253,13.3953488 Z" id="Shape" fill-opacity="0.4" fill="#000000"></path>
                            <path d="M64.4651163,24.2790698 C69.0321317,29.0827023 71.7025105,35.3135863 72,41.8604651 C71.6124478,35.333581 68.9543083,29.1312554 64.4651163,24.2790698" id="Shape" fill-opacity="0.4" fill="#000000"></path>
                            <path d="M18.4186047,58.6046512 L0,58.6046512 L14.6623551,47.7209302 C15.144563,51.5573933 16.4222816,55.2595787 18.4186047,58.6046512" id="Shape" fill-opacity="0.4" fill="#000000"></path>
                            <path d="M0,58.6046512 L15.9069767,53.5965523 C15.2358057,51.6910799 14.7715833,49.721665 14.5219992,47.7209302 L0,58.6046512 Z" id="Shape" fill-opacity="0.4" fill="#000000"></path>
                            <path d="M65.3023256,60.3421701 C60.1168255,67.6542004 51.7033598,72 42.7327731,72 C33.7621864,72 25.3487207,67.6542004 20.1632206,60.3421701 L65.3023256,60.3421701 Z M42.7327731,16.7441935 C45.4430207,16.7422061 48.1388214,17.1384634 50.7336124,17.9202415 L15.082204,45.1805372 C15.073913,44.9118314 15.0697674,44.6426655 15.0697674,44.3730394 C15.0697674,29.1147829 27.4524136,16.7455738 42.7272457,16.7455738 L42.7327731,16.7441935 Z" id="Shape" fill-opacity="0.4" fill="#000000"></path>
                            <path d="M67.0240064,58.6046512 L19.9294999,58.6046512 C17.670995,54.9937653 16.2936084,50.9098798 15.9069767,46.6780625 L53.1291489,18.4186047 C60.9052402,21.2896532 66.9737887,27.4669085 69.6651936,35.2508619 C72.3565985,43.0348152 71.3873115,51.6054019 67.0240064,58.6046512" id="Shape" fill-opacity="0.4" fill="#000000"></path>
                            <path d="M17.3188392,53.5813953 L70.3255814,36.5653048 C67.8249736,28.1915786 61.5359596,21.4737099 53.3373288,18.4186047 L15.9069767,47.0310825 C16.1097454,49.2634985 16.5833722,51.4630494 17.3174482,53.5813953" id="Shape" fill-opacity="0.4" fill="#000000"></path>
                        </g>
                    </g>
                </g>
            </g>
        </g>
    </g>
</svg>