<?xml version="1.0" encoding="UTF-8"?>
<svg width="50px" height="64px" viewBox="0 0 50 64" version="1.1" xmlns="http://www.w3.org/2000/svg" xmlns:xlink="http://www.w3.org/1999/xlink">
    <!-- Generator: Sketch 50.2 (55047) - http://www.bohemiancoding.com/sketch -->
    <title>SVG/logo-white</title>
    <desc>Created with Sketch.</desc>
    <defs></defs>
    <g id="SVG/logo-white" stroke="none" stroke-width="1" fill="none" fill-rule="evenodd">
        <g id="logo" fill="#FFFFFF">
            <path d="M43.5884354,32.5764369 L43.5884354,42.9631476 C43.5884354,45.5158805 42.9226493,47.9195501 41.757141,50.0072524 L48.3674784,56.540231 C50.0218179,58.1751284 50.0462999,60.8749324 48.4209429,62.5398961 C46.7958559,64.2042258 44.1119195,64.2277716 42.4579401,62.5935987 L35.6659674,55.8812188 C33.7214434,56.8725898 31.5265183,57.4320756 29.2080128,57.4320756 L14.4577491,57.4320756 C6.54842214,57.4320756 0.0773264881,50.9211938 0.0773264881,42.9631476 L0.0773264881,28.122195 C0.0773264881,20.1680429 6.54221162,13.6597874 14.4463181,13.6535387 C13.8651391,15.8936551 13.5772948,18.3224101 13.7465091,20.9055715 C9.78860536,22.1038744 6.88415045,25.8129806 6.88415045,30.172224 L6.88415045,40.8607744 C6.88415045,46.1813226 11.2105453,50.5343173 16.4986712,50.5343173 L26.956923,50.5343173 C30.4325661,50.5343173 33.4928241,48.653728 35.1822666,45.8539447 C38.5450401,42.175267 42.0321142,37.6674131 43.5884354,32.5764369" id="Shape"></path>
            <path d="M23.3958627,11.308281 C22.2977701,6.62002951 24.0054841,3.99729292 25.1003365,0.0624182704 C26.4208378,13.539613 40.7546365,14.2928087 42.8704449,23.8494374 C44.721541,32.2162759 39.3115448,39.5350522 34.3629275,44.8820442 C34.4673363,44.6023013 34.5725552,44.3135929 34.677684,44.0151945 C35.3452703,42.1070746 36.0156469,39.79623 36.2570472,37.2291885 C36.3812577,35.9491996 36.3858481,34.6112516 36.2525468,33.2679606 C36.1131251,31.924579 35.8367118,30.5776655 35.4227669,29.2821907 C35.22286,28.6361286 34.9823597,27.9903382 34.7075666,27.38041 C34.4254828,26.7375176 34.0969551,26.154486 33.7507859,25.5768881 C33.0373857,24.4388082 32.2009452,23.4240724 31.3306618,22.5223567 C27.6757236,18.7550199 24.7340056,17.0218638 23.3958627,11.308281" id="Shape"></path>
            <path d="M34.3629275,38.5928557 C34.7573408,34.8753274 34.7196276,31.0895162 33.2055199,27.6455726 C31.2911485,23.2982832 29.1945117,21.4623405 26.4744823,18.079435 C25.8461394,17.3025123 25.3373264,16.5339213 24.9681153,15.8089806 C22.0678908,10.1657636 23.8591318,5.70925771 25.083055,0.124090299 C24.5004359,0.587671963 13.5742346,9.46454994 14.9013065,22.2263129 C16.1931854,34.7071557 29.5560722,33.9787737 31.9705258,45.3328568 C32.2489192,44.7293584 32.542704,44.0644597 32.8372088,43.3471261 C33.4050667,41.9534832 33.9763449,40.3499199 34.3629275,38.5928557" id="Shape"></path>
        </g>
    </g>
</svg>